# xmcd
#
# Track frame offsets:
#	150
#	12711
#	28172
#	43906
#	58110
#	80753
#	93442
#	114301
#	133225
#	144830
#	159909
#	171803
#	184180
#	196661
#
# Disc length: 2863 seconds
#
# Revision: 0
# Processed by: cddbd v1.5.1PL0 Copyright (c) Steve Scherf et al.
# Submitted via: dBpowerAMP V4.0
#
DISCID=bf0b2d0e
DTITLE=Tom Ball and Kenny Sultan - Happy Hour
DYEAR=1900
DGENRE=Blues
TTITLE0=This Old Band
TTITLE1=Living With The Blues
TTITLE2=Live The Life I Love
TTITLE3=I Gotta Have That Gal
TTITLE4=I Can't Please You
TTITLE5=Buck Dance
TTITLE6=Fool's Paradise
TTITLE7=I Got Two
TTITLE8=Lovin' Is A Gamble
TTITLE9=One Eyed Sam
TTITLE10=When The Fire Burns Low
TTITLE11=Barefoot Rock
TTITLE12=Everybody Eats When They Come To My House
TTITLE13=Brown Liquor In A Dirty Glass
EXTD=
EXTT0=
EXTT1=
EXTT2=
EXTT3=
EXTT4=
EXTT5=
EXTT6=
EXTT7=
EXTT8=
EXTT9=
EXTT10=
EXTT11=
EXTT12=
EXTT13=
PLAYORDER=
